<svg width="652" height="94" viewBox="0 0 652 94" fill="none" xmlns="http://www.w3.org/2000/svg">
<path d="M96.2943 68.072C92.5183 68.072 89.2543 66.92 86.5023 64.616C83.8143 62.312 81.7663 59.112 80.3583 55.016C78.9503 50.856 78.2463 46.12 78.2463 40.808C78.2463 36.84 78.9183 32.744 80.2623 28.52C81.6703 24.232 83.9103 20.136 86.9823 16.232C90.0543 12.328 94.1503 8.936 99.2703 6.056C104.39 3.176 110.694 1.16 118.182 0.00799561L119.814 2.504L116.646 10.76C115.622 10.632 114.63 10.536 113.67 10.472C112.774 10.408 111.878 10.376 110.982 10.376C106.246 10.376 102.31 11.176 99.1743 12.776C96.0383 14.312 93.5743 16.36 91.7823 18.92C89.9903 21.416 88.7103 24.136 87.9423 27.08C87.1743 30.024 86.7903 32.84 86.7903 35.528C86.7903 41.096 87.3663 45.672 88.5183 49.256C89.6703 52.84 91.1423 55.496 92.9343 57.224C94.7903 58.888 96.7103 59.72 98.6943 59.72C101.894 59.72 104.71 58.472 107.142 55.976C109.574 53.416 111.494 49.64 112.902 44.648C112.774 43.496 112.678 42.344 112.614 41.192C112.55 40.04 112.518 38.856 112.518 37.64C112.518 36.168 112.614 34.6 112.806 32.936C112.998 31.208 113.222 29.544 113.478 27.944L115.782 26.408L123.654 29.96C122.63 31.88 121.862 34.312 121.35 37.256C120.838 40.136 120.582 43.24 120.582 46.568C120.582 50.472 120.838 54.216 121.35 57.8C121.926 61.32 122.47 64.168 122.982 66.344C122.982 66.6 122.694 66.76 122.118 66.824C121.734 66.76 121.158 66.6 120.39 66.344C119.622 66.152 119.078 65.832 118.758 65.384C117.862 63.208 117.03 61.096 116.262 59.048C115.494 56.936 114.854 54.792 114.342 52.616C112.358 57.544 109.798 61.352 106.662 64.04C103.526 66.728 100.07 68.072 96.2943 68.072ZM131.439 67.88C130.927 67.88 130.671 67.752 130.671 67.496C131.631 62.76 132.271 58.408 132.591 54.44C132.975 50.472 133.167 46.888 133.167 43.688C133.167 37.608 132.783 32.648 132.015 28.808C131.311 24.968 130.703 22.056 130.191 20.072L132.495 18.44L140.271 22.568C140.463 24.552 140.623 26.568 140.751 28.616C140.879 30.6 140.943 32.648 140.943 34.76V36.584H141.711C145.103 26.984 149.871 21 156.015 18.632L158.031 20.456L155.727 31.496C155.279 31.368 154.799 31.272 154.287 31.208C153.839 31.144 153.423 31.112 153.039 31.112C150.415 31.112 148.335 32.104 146.799 34.088C145.327 36.008 143.983 38.856 142.767 42.632C141.551 46.344 140.047 50.92 138.255 56.36L134.991 66.44C134.607 66.888 134.031 67.24 133.263 67.496C132.495 67.752 131.887 67.88 131.439 67.88ZM169.368 67.112C165.336 67.112 162.232 65.64 160.056 62.696C157.88 59.752 156.792 55.912 156.792 51.176C156.792 48.168 157.208 45.064 158.04 41.864C158.936 38.6 160.376 35.464 162.36 32.456C164.408 29.448 167.16 26.792 170.616 24.488C174.072 22.184 178.392 20.424 183.576 19.208C185.816 19.976 187.352 21.384 188.184 23.432C189.016 25.48 189.432 27.56 189.432 29.672C188.664 32.808 187.224 35.496 185.112 37.736C183.064 39.976 180.728 41.832 178.104 43.304C175.48 44.712 172.984 45.832 170.616 46.664C168.248 47.432 166.392 47.944 165.048 48.2C165.368 51.528 166.232 53.928 167.64 55.4C169.112 56.872 170.776 57.608 172.632 57.608C175.576 57.608 178.328 56.36 180.888 53.864C183.448 51.304 185.784 47.816 187.896 43.4C188.024 43.016 188.248 42.824 188.568 42.824C188.888 42.824 189.336 42.984 189.912 43.304C190.488 43.56 191 43.848 191.448 44.168C189.72 48.392 187.64 52.264 185.208 55.784C182.84 59.24 180.28 61.992 177.528 64.04C174.84 66.088 172.12 67.112 169.368 67.112ZM165.048 44.36C168.888 43.336 172.024 42.024 174.456 40.424C176.888 38.76 178.68 37.032 179.832 35.24C180.984 33.384 181.56 31.688 181.56 30.152C181.56 29.256 181.272 28.488 180.696 27.848C180.12 27.144 179.288 26.792 178.2 26.792C176.728 26.792 175 27.432 173.016 28.712C171.096 29.928 169.336 31.816 167.736 34.376C166.2 36.936 165.304 40.264 165.048 44.36ZM230.019 67.688C229.571 67.688 228.963 67.56 228.195 67.304C227.427 67.048 226.851 66.728 226.467 66.344C225.315 63.72 224.323 60.52 223.491 56.744C222.723 52.904 222.083 49.128 221.571 45.416C219.779 49.64 217.731 53.384 215.427 56.648C213.123 59.912 210.755 62.472 208.323 64.328C205.955 66.184 203.651 67.112 201.411 67.112C198.531 67.112 196.419 66.088 195.075 64.04C193.795 61.992 193.155 59.4 193.155 56.264C193.155 51.912 193.987 47.912 195.651 44.264C197.315 40.552 199.523 37.224 202.275 34.28C205.091 31.272 208.131 28.68 211.395 26.504C214.723 24.264 218.019 22.44 221.283 21.032L229.059 17.672L231.363 19.016C230.403 21.832 229.635 25.224 229.059 29.192C228.483 33.16 228.195 36.936 228.195 40.52C228.195 42.248 228.259 44.392 228.387 46.952C228.579 49.512 228.803 52.168 229.059 54.92C229.315 57.608 229.571 60.104 229.827 62.408C230.147 64.648 230.435 66.312 230.691 67.4C230.691 67.592 230.467 67.688 230.019 67.688ZM206.979 55.592C208.899 55.592 211.139 54.024 213.699 50.888C216.259 47.752 218.563 43.016 220.611 36.68C220.547 35.976 220.515 35.336 220.515 34.76C220.515 34.12 220.515 33.544 220.515 33.032C220.515 31.432 220.515 30.056 220.515 28.904C220.515 27.752 220.547 26.728 220.611 25.832C217.667 27.496 214.787 29.416 211.971 31.592C209.155 33.704 206.819 36.168 204.963 38.984C203.107 41.736 202.179 44.904 202.179 48.488C202.179 50.536 202.499 52.232 203.139 53.576C203.843 54.92 205.123 55.592 206.979 55.592ZM243.145 67.112C242.697 67.112 242.473 67.016 242.473 66.824C243.241 61.896 243.785 57.32 244.105 53.096C244.425 48.808 244.585 44.552 244.585 40.328C244.585 38.984 244.553 37.288 244.489 35.24C244.489 33.192 244.425 31.016 244.297 28.712C242.953 28.584 241.577 28.424 240.169 28.232C238.825 27.976 237.545 27.688 236.329 27.368C236.073 27.24 235.785 26.856 235.465 26.216C235.209 25.576 234.985 24.936 234.793 24.296C234.601 23.592 234.473 23.08 234.409 22.76C234.409 22.44 234.473 22.28 234.601 22.28C234.729 22.216 234.793 22.184 234.793 22.184C236.201 22.44 237.705 22.632 239.305 22.76C240.969 22.888 242.537 22.952 244.009 22.952C243.881 20.264 243.721 17.672 243.529 15.176C243.401 12.68 243.209 10.536 242.953 8.744L245.257 7.112L253.033 11.24L252.457 22.472C254.825 22.152 256.905 21.736 258.697 21.224C260.489 20.648 262.089 20.104 263.497 19.592L264.457 21.128L261.577 27.848C258.441 28.488 255.241 28.84 251.977 28.904C251.657 33.32 251.273 37.832 250.825 42.44C250.377 46.984 249.833 51.272 249.193 55.304C248.617 59.336 247.945 62.824 247.177 65.768C246.793 66.216 246.121 66.536 245.161 66.728C244.265 66.984 243.593 67.112 243.145 67.112ZM300.119 68.36L290.999 64.424C289.975 55.272 288.439 46.408 286.391 37.832C284.343 29.256 282.135 21.192 279.767 13.64C279.511 18.056 279.159 22.792 278.711 27.848C278.263 32.84 277.719 37.768 277.079 42.632C276.503 47.496 275.895 51.976 275.255 56.072C274.615 60.104 273.975 63.368 273.335 65.864C272.759 66.44 271.959 66.888 270.935 67.208C269.911 67.528 269.143 67.688 268.631 67.688C268.183 67.688 267.895 67.656 267.767 67.592C267.639 67.528 267.575 67.432 267.575 67.304C267.511 67.304 267.703 66.152 268.151 63.848C268.663 61.48 269.175 58.024 269.687 53.48C270.199 48.872 270.455 43.208 270.455 36.488C270.455 32.136 270.327 28.008 270.071 24.104C269.815 20.136 269.495 16.648 269.111 13.64C268.727 10.632 268.407 8.264 268.151 6.536C267.895 4.808 267.767 3.944 267.767 3.944L277.655 0.00799561L280.151 1.544C283.415 8.904 286.423 16.424 289.175 24.104C291.927 31.784 294.487 39.592 296.855 47.528C299.607 40.168 302.711 32.84 306.167 25.544C309.623 18.184 313.495 10.28 317.783 1.832C317.783 1.768 317.783 1.736 317.783 1.736C317.847 1.672 317.879 1.608 317.879 1.544L320.375 0.00799561L328.535 3.944C326.807 8.36 325.623 13.544 324.983 19.496C324.407 25.448 324.119 31.88 324.119 38.792C324.119 44.68 324.247 50.248 324.503 55.496C324.823 60.68 325.175 64.84 325.559 67.976C325.559 68.168 325.303 68.264 324.791 68.264C324.343 68.264 323.703 68.136 322.871 67.88C322.039 67.624 321.431 67.272 321.047 66.824C319.575 59.272 318.359 51.912 317.399 44.744C316.503 37.576 316.055 30.504 316.055 23.528C316.055 20.392 316.151 17.288 316.343 14.216C313.719 20.296 311.447 25.992 309.527 31.304C307.671 36.552 306.039 41.704 304.631 46.76C303.287 51.816 302.103 57.064 301.079 62.504L302.231 66.824L300.119 68.36ZM351.358 68.168C348.286 68.168 345.47 67.368 342.91 65.768C340.35 64.232 338.302 61.96 336.766 58.952C335.23 55.88 334.462 52.104 334.462 47.624C334.462 44.552 335.038 41.416 336.19 38.216C337.406 35.016 339.358 32.008 342.046 29.192C344.734 26.376 348.35 24.008 352.894 22.088C357.438 20.168 363.038 18.952 369.694 18.44L370.75 21.128L366.142 26.408C367.742 28.328 369.022 30.536 369.982 33.032C371.006 35.528 371.518 38.792 371.518 42.824C371.518 45.768 371.102 48.744 370.27 51.752C369.502 54.76 368.286 57.512 366.622 60.008C364.958 62.44 362.846 64.392 360.286 65.864C357.79 67.4 354.814 68.168 351.358 68.168ZM352.414 59.432C355.23 59.432 357.662 58.6 359.71 56.936C361.758 55.208 363.326 53.16 364.414 50.792C365.502 48.424 366.046 46.184 366.046 44.072C366.046 41 365.726 37.896 365.086 34.76C364.446 31.624 363.006 28.744 360.766 26.12C357.63 26.632 354.718 27.784 352.03 29.576C349.342 31.368 347.198 33.64 345.598 36.392C343.998 39.08 343.198 42.152 343.198 45.608C343.198 49.576 343.998 52.872 345.598 55.496C347.198 58.12 349.47 59.432 352.414 59.432ZM390.676 67.688C390.228 67.688 389.62 67.56 388.852 67.304C388.084 67.112 387.476 66.792 387.028 66.344C386.004 63.976 384.98 61.224 383.956 58.088C382.932 54.888 382.004 51.496 381.172 47.912C380.34 44.328 379.668 40.712 379.156 37.064C378.644 33.416 378.388 29.928 378.388 26.6C378.388 25.448 378.42 24.328 378.484 23.24C378.548 22.152 378.676 21.096 378.868 20.072L381.268 18.44L388.948 22.28C387.796 27.08 387.22 31.944 387.22 36.872C387.22 41.16 387.476 45.352 387.988 49.448C388.5 53.544 389.076 57.384 389.716 60.968C390.676 57.576 391.924 54.056 393.46 50.408C394.996 46.696 396.66 43.016 398.452 39.368C400.308 35.656 402.228 32.2 404.212 29C406.196 25.736 408.084 22.888 409.876 20.456C410.388 20.072 411.092 19.752 411.988 19.496C412.884 19.24 413.556 19.112 414.004 19.112C414.196 19.112 414.292 19.24 414.292 19.496C414.292 19.56 414.26 19.656 414.196 19.784C414.196 19.848 414.196 19.944 414.196 20.072C411.956 24.04 409.78 28.52 407.668 33.512C405.62 38.44 403.796 43.56 402.196 48.872C400.66 54.12 399.572 59.272 398.932 64.328L390.676 67.688ZM422.188 12.68C420.588 12.68 419.372 12.104 418.54 10.952C417.708 9.736 417.292 8.52 417.292 7.304C417.292 5.448 418.028 3.88 419.5 2.6C420.972 1.32 423.116 0.487997 425.932 0.103994C427.02 0.935995 427.756 1.928 428.14 3.08C428.588 4.168 428.812 5.224 428.812 6.248C428.812 8.232 428.108 9.8 426.7 10.952C425.292 12.104 423.788 12.68 422.188 12.68ZM416.908 66.248C416.46 66.248 416.236 66.152 416.236 65.96C417.132 60.776 417.74 56.072 418.06 51.848C418.444 47.624 418.636 43.848 418.636 40.52C418.636 35.272 418.348 30.984 417.772 27.656C417.196 24.328 416.652 21.736 416.14 19.88L418.444 18.44L426.22 22.184C426.284 23.208 426.316 24.264 426.316 25.352C426.38 26.376 426.412 27.432 426.412 28.52C426.412 34.536 425.868 40.584 424.78 46.664C423.756 52.68 422.348 58.76 420.556 64.904C420.172 65.288 419.564 65.608 418.732 65.864C417.964 66.12 417.356 66.248 416.908 66.248ZM445.271 67.112C441.239 67.112 438.135 65.64 435.959 62.696C433.783 59.752 432.695 55.912 432.695 51.176C432.695 48.168 433.111 45.064 433.943 41.864C434.839 38.6 436.279 35.464 438.263 32.456C440.311 29.448 443.063 26.792 446.519 24.488C449.975 22.184 454.295 20.424 459.479 19.208C461.719 19.976 463.255 21.384 464.087 23.432C464.919 25.48 465.335 27.56 465.335 29.672C464.567 32.808 463.127 35.496 461.015 37.736C458.967 39.976 456.631 41.832 454.007 43.304C451.383 44.712 448.887 45.832 446.519 46.664C444.151 47.432 442.295 47.944 440.951 48.2C441.271 51.528 442.135 53.928 443.543 55.4C445.015 56.872 446.679 57.608 448.535 57.608C451.479 57.608 454.231 56.36 456.791 53.864C459.351 51.304 461.687 47.816 463.799 43.4C463.927 43.016 464.151 42.824 464.471 42.824C464.791 42.824 465.239 42.984 465.815 43.304C466.391 43.56 466.903 43.848 467.351 44.168C465.623 48.392 463.543 52.264 461.111 55.784C458.743 59.24 456.183 61.992 453.431 64.04C450.743 66.088 448.023 67.112 445.271 67.112ZM440.951 44.36C444.791 43.336 447.927 42.024 450.359 40.424C452.791 38.76 454.583 37.032 455.735 35.24C456.887 33.384 457.463 31.688 457.463 30.152C457.463 29.256 457.175 28.488 456.599 27.848C456.023 27.144 455.191 26.792 454.103 26.792C452.631 26.792 450.903 27.432 448.919 28.712C446.999 29.928 445.239 31.816 443.639 34.376C442.103 36.936 441.207 40.264 440.951 44.36Z" fill="#C77575"/>
<path d="M98.2071 66.88C94.6671 66.88 91.6071 65.8 89.0271 63.64C86.5071 61.48 84.5871 58.48 83.2671 54.64C81.9471 50.74 81.2871 46.3 81.2871 41.32C81.2871 37.6 81.9171 33.76 83.1771 29.8C84.4971 25.78 86.5971 21.94 89.4771 18.28C92.3571 14.62 96.1971 11.44 100.997 8.74C105.797 6.04 111.707 4.15 118.727 3.07L120.257 5.41L117.287 13.15C116.327 13.03 115.397 12.94 114.497 12.88C113.657 12.82 112.817 12.79 111.977 12.79C107.537 12.79 103.847 13.54 100.907 15.04C97.9671 16.48 95.6571 18.4 93.9771 20.8C92.2971 23.14 91.0971 25.69 90.3771 28.45C89.6571 31.21 89.2971 33.85 89.2971 36.37C89.2971 41.59 89.8371 45.88 90.9171 49.24C91.9971 52.6 93.3771 55.09 95.0571 56.71C96.7971 58.27 98.5971 59.05 100.457 59.05C103.457 59.05 106.097 57.88 108.377 55.54C110.657 53.14 112.457 49.6 113.777 44.92C113.657 43.84 113.567 42.76 113.507 41.68C113.447 40.6 113.417 39.49 113.417 38.35C113.417 36.97 113.507 35.5 113.687 33.94C113.867 32.32 114.077 30.76 114.317 29.26L116.477 27.82L123.857 31.15C122.897 32.95 122.177 35.23 121.697 37.99C121.217 40.69 120.977 43.6 120.977 46.72C120.977 50.38 121.217 53.89 121.697 57.25C122.237 60.55 122.747 63.22 123.227 65.26C123.227 65.5 122.957 65.65 122.417 65.71C122.057 65.65 121.517 65.5 120.797 65.26C120.077 65.08 119.567 64.78 119.267 64.36C118.427 62.32 117.647 60.34 116.927 58.42C116.207 56.44 115.607 54.43 115.127 52.39C113.267 57.01 110.867 60.58 107.927 63.1C104.987 65.62 101.747 66.88 98.2071 66.88ZM132.955 66.7C132.475 66.7 132.235 66.58 132.235 66.34C133.135 61.9 133.735 57.82 134.035 54.1C134.395 50.38 134.575 47.02 134.575 44.02C134.575 38.32 134.215 33.67 133.495 30.07C132.835 26.47 132.265 23.74 131.785 21.88L133.945 20.35L141.235 24.22C141.415 26.08 141.565 27.97 141.685 29.89C141.805 31.75 141.865 33.67 141.865 35.65V37.36H142.585C145.765 28.36 150.235 22.75 155.995 20.53L157.885 22.24L155.725 32.59C155.305 32.47 154.855 32.38 154.375 32.32C153.955 32.26 153.565 32.23 153.205 32.23C150.745 32.23 148.795 33.16 147.355 35.02C145.975 36.82 144.715 39.49 143.575 43.03C142.435 46.51 141.025 50.8 139.345 55.9L136.285 65.35C135.925 65.77 135.385 66.1 134.665 66.34C133.945 66.58 133.375 66.7 132.955 66.7ZM170.314 65.98C166.534 65.98 163.624 64.6 161.584 61.84C159.544 59.08 158.524 55.48 158.524 51.04C158.524 48.22 158.914 45.31 159.694 42.31C160.534 39.25 161.884 36.31 163.744 33.49C165.664 30.67 168.244 28.18 171.484 26.02C174.724 23.86 178.774 22.21 183.634 21.07C185.734 21.79 187.174 23.11 187.954 25.03C188.734 26.95 189.124 28.9 189.124 30.88C188.404 33.82 187.054 36.34 185.074 38.44C183.154 40.54 180.964 42.28 178.504 43.66C176.044 44.98 173.704 46.03 171.484 46.81C169.264 47.53 167.524 48.01 166.264 48.25C166.564 51.37 167.374 53.62 168.694 55C170.074 56.38 171.634 57.07 173.374 57.07C176.134 57.07 178.714 55.9 181.114 53.56C183.514 51.16 185.704 47.89 187.684 43.75C187.804 43.39 188.014 43.21 188.314 43.21C188.614 43.21 189.034 43.36 189.574 43.66C190.114 43.9 190.594 44.17 191.014 44.47C189.394 48.43 187.444 52.06 185.164 55.36C182.944 58.6 180.544 61.18 177.964 63.1C175.444 65.02 172.894 65.98 170.314 65.98ZM166.264 44.65C169.864 43.69 172.804 42.46 175.084 40.96C177.364 39.4 179.044 37.78 180.124 36.1C181.204 34.36 181.744 32.77 181.744 31.33C181.744 30.49 181.474 29.77 180.934 29.17C180.394 28.51 179.614 28.18 178.594 28.18C177.214 28.18 175.594 28.78 173.734 29.98C171.934 31.12 170.284 32.89 168.784 35.29C167.344 37.69 166.504 40.81 166.264 44.65ZM228.974 66.52C228.554 66.52 227.984 66.4 227.264 66.16C226.544 65.92 226.004 65.62 225.644 65.26C224.564 62.8 223.634 59.8 222.854 56.26C222.134 52.66 221.534 49.12 221.054 45.64C219.374 49.6 217.454 53.11 215.294 56.17C213.134 59.23 210.914 61.63 208.634 63.37C206.414 65.11 204.254 65.98 202.154 65.98C199.454 65.98 197.474 65.02 196.214 63.1C195.014 61.18 194.414 58.75 194.414 55.81C194.414 51.73 195.194 47.98 196.754 44.56C198.314 41.08 200.384 37.96 202.964 35.2C205.604 32.38 208.454 29.95 211.514 27.91C214.634 25.81 217.724 24.1 220.784 22.78L228.074 19.63L230.234 20.89C229.334 23.53 228.614 26.71 228.074 30.43C227.534 34.15 227.264 37.69 227.264 41.05C227.264 42.67 227.324 44.68 227.444 47.08C227.624 49.48 227.834 51.97 228.074 54.55C228.314 57.07 228.554 59.41 228.794 61.57C229.094 63.67 229.364 65.23 229.604 66.25C229.604 66.43 229.394 66.52 228.974 66.52ZM207.374 55.18C209.174 55.18 211.274 53.71 213.674 50.77C216.074 47.83 218.234 43.39 220.154 37.45C220.094 36.79 220.064 36.19 220.064 35.65C220.064 35.05 220.064 34.51 220.064 34.03C220.064 32.53 220.064 31.24 220.064 30.16C220.064 29.08 220.094 28.12 220.154 27.28C217.394 28.84 214.694 30.64 212.054 32.68C209.414 34.66 207.224 36.97 205.484 39.61C203.744 42.19 202.874 45.16 202.874 48.52C202.874 50.44 203.174 52.03 203.774 53.29C204.434 54.55 205.634 55.18 207.374 55.18ZM243.08 65.98C242.66 65.98 242.45 65.89 242.45 65.71C243.17 61.09 243.68 56.8 243.98 52.84C244.28 48.82 244.43 44.83 244.43 40.87C244.43 39.61 244.4 38.02 244.34 36.1C244.34 34.18 244.28 32.14 244.16 29.98C242.9 29.86 241.61 29.71 240.29 29.53C239.03 29.29 237.83 29.02 236.69 28.72C236.45 28.6 236.18 28.24 235.88 27.64C235.64 27.04 235.43 26.44 235.25 25.84C235.07 25.18 234.95 24.7 234.89 24.4C234.89 24.1 234.95 23.95 235.07 23.95C235.19 23.89 235.25 23.86 235.25 23.86C236.57 24.1 237.98 24.28 239.48 24.4C241.04 24.52 242.51 24.58 243.89 24.58C243.77 22.06 243.62 19.63 243.44 17.29C243.32 14.95 243.14 12.94 242.9 11.26L245.06 9.73L252.35 13.6L251.81 24.13C254.03 23.83 255.98 23.44 257.66 22.96C259.34 22.42 260.84 21.91 262.16 21.43L263.06 22.87L260.36 29.17C257.42 29.77 254.42 30.1 251.36 30.16C251.06 34.3 250.7 38.53 250.28 42.85C249.86 47.11 249.35 51.13 248.75 54.91C248.21 58.69 247.58 61.96 246.86 64.72C246.5 65.14 245.87 65.44 244.97 65.62C244.13 65.86 243.5 65.98 243.08 65.98ZM298.293 67.15L289.743 63.46C288.783 54.88 287.343 46.57 285.423 38.53C283.503 30.49 281.433 22.93 279.213 15.85C278.973 19.99 278.643 24.43 278.223 29.17C277.803 33.85 277.293 38.47 276.693 43.03C276.153 47.59 275.583 51.79 274.983 55.63C274.383 59.41 273.783 62.47 273.183 64.81C272.643 65.35 271.893 65.77 270.933 66.07C269.973 66.37 269.253 66.52 268.773 66.52C268.353 66.52 268.083 66.49 267.963 66.43C267.843 66.37 267.783 66.28 267.783 66.16C267.723 66.16 267.903 65.08 268.323 62.92C268.803 60.7 269.283 57.46 269.763 53.2C270.243 48.88 270.483 43.57 270.483 37.27C270.483 33.19 270.363 29.32 270.123 25.66C269.883 21.94 269.583 18.67 269.223 15.85C268.863 13.03 268.563 10.81 268.323 9.19C268.083 7.57 267.963 6.76 267.963 6.76L277.233 3.07L279.573 4.51C282.633 11.41 285.453 18.46 288.033 25.66C290.613 32.86 293.013 40.18 295.233 47.62C297.813 40.72 300.723 33.85 303.963 27.01C307.203 20.11 310.833 12.7 314.853 4.78C314.853 4.72 314.853 4.69 314.853 4.69C314.913 4.63 314.943 4.57 314.943 4.51L317.283 3.07L324.933 6.76C323.313 10.9 322.203 15.76 321.603 21.34C321.063 26.92 320.793 32.95 320.793 39.43C320.793 44.95 320.913 50.17 321.153 55.09C321.453 59.95 321.783 63.85 322.143 66.79C322.143 66.97 321.903 67.06 321.423 67.06C321.003 67.06 320.403 66.94 319.623 66.7C318.843 66.46 318.273 66.13 317.913 65.71C316.533 58.63 315.393 51.73 314.493 45.01C313.653 38.29 313.233 31.66 313.233 25.12C313.233 22.18 313.323 19.27 313.503 16.39C311.043 22.09 308.913 27.43 307.113 32.41C305.373 37.33 303.843 42.16 302.523 46.9C301.263 51.64 300.153 56.56 299.193 61.66L300.273 65.71L298.293 67.15ZM348.129 66.97C345.249 66.97 342.609 66.22 340.209 64.72C337.809 63.28 335.889 61.15 334.449 58.33C333.009 55.45 332.289 51.91 332.289 47.71C332.289 44.83 332.829 41.89 333.909 38.89C335.049 35.89 336.879 33.07 339.399 30.43C341.919 27.79 345.309 25.57 349.569 23.77C353.829 21.97 359.079 20.83 365.319 20.35L366.309 22.87L361.989 27.82C363.489 29.62 364.689 31.69 365.589 34.03C366.549 36.37 367.029 39.43 367.029 43.21C367.029 45.97 366.639 48.76 365.859 51.58C365.139 54.4 363.999 56.98 362.439 59.32C360.879 61.6 358.899 63.43 356.499 64.81C354.159 66.25 351.369 66.97 348.129 66.97ZM349.119 58.78C351.759 58.78 354.039 58 355.959 56.44C357.879 54.82 359.349 52.9 360.369 50.68C361.389 48.46 361.899 46.36 361.899 44.38C361.899 41.5 361.599 38.59 360.999 35.65C360.399 32.71 359.049 30.01 356.949 27.55C354.009 28.03 351.279 29.11 348.759 30.79C346.239 32.47 344.229 34.6 342.729 37.18C341.229 39.7 340.479 42.58 340.479 45.82C340.479 49.54 341.229 52.63 342.729 55.09C344.229 57.55 346.359 58.78 349.119 58.78ZM386.79 66.52C386.37 66.52 385.8 66.4 385.08 66.16C384.36 65.98 383.79 65.68 383.37 65.26C382.41 63.04 381.45 60.46 380.49 57.52C379.53 54.52 378.66 51.34 377.88 47.98C377.1 44.62 376.47 41.23 375.99 37.81C375.51 34.39 375.27 31.12 375.27 28C375.27 26.92 375.3 25.87 375.36 24.85C375.42 23.83 375.54 22.84 375.72 21.88L377.97 20.35L385.17 23.95C384.09 28.45 383.55 33.01 383.55 37.63C383.55 41.65 383.79 45.58 384.27 49.42C384.75 53.26 385.29 56.86 385.89 60.22C386.79 57.04 387.96 53.74 389.4 50.32C390.84 46.84 392.4 43.39 394.08 39.97C395.82 36.49 397.62 33.25 399.48 30.25C401.34 27.19 403.11 24.52 404.79 22.24C405.27 21.88 405.93 21.58 406.77 21.34C407.61 21.1 408.24 20.98 408.66 20.98C408.84 20.98 408.93 21.1 408.93 21.34C408.93 21.4 408.9 21.49 408.84 21.61C408.84 21.67 408.84 21.76 408.84 21.88C406.74 25.6 404.7 29.8 402.72 34.48C400.8 39.1 399.09 43.9 397.59 48.88C396.15 53.8 395.13 58.63 394.53 63.37L386.79 66.52ZM418.132 14.95C416.632 14.95 415.492 14.41 414.712 13.33C413.932 12.19 413.542 11.05 413.542 9.91C413.542 8.17 414.232 6.7 415.612 5.5C416.992 4.3 419.002 3.52 421.642 3.15999C422.662 3.94 423.352 4.87 423.712 5.95C424.132 6.97 424.342 7.96 424.342 8.92C424.342 10.78 423.682 12.25 422.362 13.33C421.042 14.41 419.632 14.95 418.132 14.95ZM413.182 65.17C412.762 65.17 412.552 65.08 412.552 64.9C413.392 60.04 413.962 55.63 414.262 51.67C414.622 47.71 414.802 44.17 414.802 41.05C414.802 36.13 414.532 32.11 413.992 28.99C413.452 25.87 412.942 23.44 412.462 21.7L414.622 20.35L421.912 23.86C421.972 24.82 422.002 25.81 422.002 26.83C422.062 27.79 422.092 28.78 422.092 29.8C422.092 35.44 421.582 41.11 420.562 46.81C419.602 52.45 418.282 58.15 416.602 63.91C416.242 64.27 415.672 64.57 414.892 64.81C414.172 65.05 413.602 65.17 413.182 65.17ZM441.573 65.98C437.793 65.98 434.883 64.6 432.843 61.84C430.803 59.08 429.783 55.48 429.783 51.04C429.783 48.22 430.173 45.31 430.953 42.31C431.793 39.25 433.143 36.31 435.003 33.49C436.923 30.67 439.503 28.18 442.743 26.02C445.983 23.86 450.033 22.21 454.893 21.07C456.993 21.79 458.433 23.11 459.213 25.03C459.993 26.95 460.383 28.9 460.383 30.88C459.663 33.82 458.313 36.34 456.333 38.44C454.413 40.54 452.223 42.28 449.763 43.66C447.303 44.98 444.963 46.03 442.743 46.81C440.523 47.53 438.783 48.01 437.523 48.25C437.823 51.37 438.633 53.62 439.953 55C441.333 56.38 442.893 57.07 444.633 57.07C447.393 57.07 449.973 55.9 452.373 53.56C454.773 51.16 456.963 47.89 458.943 43.75C459.063 43.39 459.273 43.21 459.573 43.21C459.873 43.21 460.293 43.36 460.833 43.66C461.373 43.9 461.853 44.17 462.273 44.47C460.653 48.43 458.703 52.06 456.423 55.36C454.203 58.6 451.803 61.18 449.223 63.1C446.703 65.02 444.153 65.98 441.573 65.98ZM437.523 44.65C441.123 43.69 444.063 42.46 446.343 40.96C448.623 39.4 450.303 37.78 451.383 36.1C452.463 34.36 453.003 32.77 453.003 31.33C453.003 30.49 452.733 29.77 452.193 29.17C451.653 28.51 450.873 28.18 449.853 28.18C448.473 28.18 446.853 28.78 444.993 29.98C443.193 31.12 441.543 32.89 440.043 35.29C438.603 37.69 437.763 40.81 437.523 44.65Z" fill="#C03232"/>
</svg>
