<svg xmlns="http://www.w3.org/2000/svg" width="20" height="20" viewBox="0 0 20 20"><path d="M10 4.037C9.698 4.037 9.343 4.029 9.056 4.02C8.956 3.841 8.867 3.673 8.782 3.515C7.919 1.909 7.299 1 4.601 1C0 1 0 2.464 0 9.5C0 17.739 1.584 18 10 18C17.762 18 20 17.696 20 10.864C20 4.328 17.762 4.037 10 4.037ZM10 16C2 16 2 16 2 9.5C2 6.353 2 4.272 2.363 3.484C2.522 3.141 2.769 3 4.601 3C6.234 3 6.339 3.194 7.02 4.462C7.188 4.775 7.377 5.126 7.611 5.516L7.888 5.977L8.426 5.999C8.426 5.999 9.333 6.037 10 6.037C18 6.037 18 6.401 18 10.864C18 15.638 17.814 16 10 16ZM13.264 9.883L8.934 7.384C8.715 7.258 8.475 7.191 8.24 7.191C7.533 7.191 7 7.754 7 8.5V13.5C7 14.246 7.533 14.809 8.24 14.809C8.475 14.809 8.715 14.743 8.933 14.617L13.265 12.116C13.69 11.87 13.943 11.453 13.943 11C13.943 10.547 13.689 10.129 13.264 9.883ZM9 12.268V9.731L11.197 10.999L9 12.268Z" fill="#a5a1b2"/></svg>